<mxfile host="app.diagrams.net" modified="2020-06-12T05:26:24.157Z" agent="5.0 (Macintosh; Intel Mac OS X 10_14_6) AppleWebKit/537.36 (KHTML, like Gecko) Chrome/83.0.4103.97 Safari/537.36" etag="UmxVZTVymOipTzuFcQLx" version="13.2.3" type="github">
  <diagram id="zstuHuoxTpI0rhcbntdd" name="第 1 页">
    <mxGraphModel dx="1426" dy="771" grid="1" gridSize="10" guides="1" tooltips="1" connect="1" arrows="1" fold="1" page="1" pageScale="1" pageWidth="827" pageHeight="1169" math="0" shadow="0">
      <root>
        <mxCell id="0" />
        <mxCell id="1" parent="0" />
        <mxCell id="PNzyqWy11bQWcvuqCI_e-16" value="" style="edgeStyle=orthogonalEdgeStyle;rounded=0;orthogonalLoop=1;jettySize=auto;html=1;entryX=0.5;entryY=0;entryDx=0;entryDy=0;" edge="1" parent="1" source="PNzyqWy11bQWcvuqCI_e-14" target="PNzyqWy11bQWcvuqCI_e-17">
          <mxGeometry relative="1" as="geometry">
            <mxPoint x="474" y="120" as="targetPoint" />
          </mxGeometry>
        </mxCell>
        <mxCell id="PNzyqWy11bQWcvuqCI_e-14" value="收到 Reaction Key" style="rounded=1;whiteSpace=wrap;html=1;" vertex="1" parent="1">
          <mxGeometry x="400" y="40" width="120" height="40" as="geometry" />
        </mxCell>
        <mxCell id="PNzyqWy11bQWcvuqCI_e-18" style="edgeStyle=orthogonalEdgeStyle;rounded=0;orthogonalLoop=1;jettySize=auto;html=1;entryX=0;entryY=0.5;entryDx=0;entryDy=0;exitX=1;exitY=0.5;exitDx=0;exitDy=0;" edge="1" parent="1" source="PNzyqWy11bQWcvuqCI_e-17" target="PNzyqWy11bQWcvuqCI_e-19">
          <mxGeometry relative="1" as="geometry">
            <mxPoint x="474" y="240" as="targetPoint" />
            <mxPoint x="550" y="140" as="sourcePoint" />
          </mxGeometry>
        </mxCell>
        <mxCell id="PNzyqWy11bQWcvuqCI_e-20" value="是" style="edgeLabel;html=1;align=center;verticalAlign=middle;resizable=0;points=[];" vertex="1" connectable="0" parent="PNzyqWy11bQWcvuqCI_e-18">
          <mxGeometry x="-0.25" y="3" relative="1" as="geometry">
            <mxPoint x="15" y="-7" as="offset" />
          </mxGeometry>
        </mxCell>
        <mxCell id="PNzyqWy11bQWcvuqCI_e-17" value="&lt;span&gt;缓存表中存在该 Key&lt;/span&gt;" style="rhombus;whiteSpace=wrap;html=1;" vertex="1" parent="1">
          <mxGeometry x="360" y="120" width="200" height="80" as="geometry" />
        </mxCell>
        <mxCell id="PNzyqWy11bQWcvuqCI_e-28" value="" style="edgeStyle=orthogonalEdgeStyle;rounded=0;orthogonalLoop=1;jettySize=auto;html=1;exitX=0.5;exitY=1;exitDx=0;exitDy=0;" edge="1" parent="1">
          <mxGeometry relative="1" as="geometry">
            <mxPoint x="459.5" y="200" as="sourcePoint" />
            <mxPoint x="459.5" y="320" as="targetPoint" />
            <Array as="points">
              <mxPoint x="459.5" y="260" />
              <mxPoint x="459.5" y="260" />
            </Array>
          </mxGeometry>
        </mxCell>
        <mxCell id="PNzyqWy11bQWcvuqCI_e-35" value="否" style="edgeLabel;html=1;align=center;verticalAlign=middle;resizable=0;points=[];" vertex="1" connectable="0" parent="PNzyqWy11bQWcvuqCI_e-28">
          <mxGeometry x="0.0381" y="-1" relative="1" as="geometry">
            <mxPoint x="-8.5" y="-32" as="offset" />
          </mxGeometry>
        </mxCell>
        <mxCell id="PNzyqWy11bQWcvuqCI_e-30" value="" style="edgeStyle=orthogonalEdgeStyle;rounded=0;orthogonalLoop=1;jettySize=auto;html=1;" edge="1" parent="1" source="PNzyqWy11bQWcvuqCI_e-27" target="PNzyqWy11bQWcvuqCI_e-29">
          <mxGeometry relative="1" as="geometry" />
        </mxCell>
        <mxCell id="PNzyqWy11bQWcvuqCI_e-27" value="获取 emoji 的 CDN URL" style="rounded=1;whiteSpace=wrap;html=1;arcSize=0;" vertex="1" parent="1">
          <mxGeometry x="400" y="320" width="120" height="40" as="geometry" />
        </mxCell>
        <mxCell id="PNzyqWy11bQWcvuqCI_e-29" value="将 img src 设置为 CDN URL" style="rounded=1;whiteSpace=wrap;html=1;" vertex="1" parent="1">
          <mxGeometry x="400" y="480" width="120" height="40" as="geometry" />
        </mxCell>
        <mxCell id="PNzyqWy11bQWcvuqCI_e-32" value="" style="edgeStyle=orthogonalEdgeStyle;rounded=0;orthogonalLoop=1;jettySize=auto;html=1;" edge="1" parent="1" source="PNzyqWy11bQWcvuqCI_e-24" target="PNzyqWy11bQWcvuqCI_e-31">
          <mxGeometry relative="1" as="geometry" />
        </mxCell>
        <mxCell id="PNzyqWy11bQWcvuqCI_e-39" style="edgeStyle=orthogonalEdgeStyle;rounded=0;orthogonalLoop=1;jettySize=auto;html=1;entryX=0.5;entryY=0;entryDx=0;entryDy=0;" edge="1" parent="1" target="PNzyqWy11bQWcvuqCI_e-24">
          <mxGeometry relative="1" as="geometry">
            <mxPoint x="540" y="280" as="targetPoint" />
            <mxPoint x="460" y="280" as="sourcePoint" />
            <Array as="points">
              <mxPoint x="230" y="280" />
            </Array>
          </mxGeometry>
        </mxCell>
        <mxCell id="PNzyqWy11bQWcvuqCI_e-24" value="通知 Rust 缓存该 Reaction Key" style="rounded=1;whiteSpace=wrap;html=1;arcSize=0;" vertex="1" parent="1">
          <mxGeometry x="170" y="320" width="120" height="40" as="geometry" />
        </mxCell>
        <mxCell id="PNzyqWy11bQWcvuqCI_e-34" value="" style="edgeStyle=orthogonalEdgeStyle;rounded=0;orthogonalLoop=1;jettySize=auto;html=1;" edge="1" parent="1" source="PNzyqWy11bQWcvuqCI_e-31" target="PNzyqWy11bQWcvuqCI_e-33">
          <mxGeometry relative="1" as="geometry" />
        </mxCell>
        <mxCell id="PNzyqWy11bQWcvuqCI_e-31" value="Rust 根据 Key 将对应资源缓存到本地，返回缓存好的路径" style="rounded=1;whiteSpace=wrap;html=1;arcSize=0;" vertex="1" parent="1">
          <mxGeometry x="130" y="400" width="200" height="40" as="geometry" />
        </mxCell>
        <mxCell id="PNzyqWy11bQWcvuqCI_e-44" style="edgeStyle=orthogonalEdgeStyle;rounded=0;orthogonalLoop=1;jettySize=auto;html=1;entryX=0;entryY=0.5;entryDx=0;entryDy=0;dashed=1;" edge="1" parent="1" source="PNzyqWy11bQWcvuqCI_e-33" target="PNzyqWy11bQWcvuqCI_e-41">
          <mxGeometry relative="1" as="geometry">
            <mxPoint x="40" y="160" as="targetPoint" />
            <Array as="points">
              <mxPoint x="40" y="500" />
              <mxPoint x="40" y="160" />
            </Array>
          </mxGeometry>
        </mxCell>
        <mxCell id="PNzyqWy11bQWcvuqCI_e-33" value="前端根据 Rust 的响应更新缓存表" style="rounded=1;whiteSpace=wrap;html=1;arcSize=0;" vertex="1" parent="1">
          <mxGeometry x="170" y="480" width="120" height="40" as="geometry" />
        </mxCell>
        <mxCell id="PNzyqWy11bQWcvuqCI_e-19" value="将 img src 设置为缓存表中对应的 value" style="rounded=1;whiteSpace=wrap;html=1;" vertex="1" parent="1">
          <mxGeometry x="640" y="140" width="160" height="40" as="geometry" />
        </mxCell>
        <mxCell id="PNzyqWy11bQWcvuqCI_e-41" value="Emoji 资源映射表" style="swimlane;childLayout=stackLayout;horizontal=1;startSize=30;horizontalStack=0;rounded=1;fontSize=14;fontStyle=0;strokeWidth=2;resizeParent=0;resizeLast=1;shadow=0;dashed=0;align=center;" vertex="1" parent="1">
          <mxGeometry x="90" y="100" width="160" height="120" as="geometry" />
        </mxCell>
        <mxCell id="PNzyqWy11bQWcvuqCI_e-42" value="+Emoji Key 1&#xa;+Emoji Key 2&#xa;+Emoji Key 3" style="align=left;strokeColor=none;fillColor=none;spacingLeft=4;fontSize=12;verticalAlign=top;resizable=0;rotatable=0;part=1;" vertex="1" parent="PNzyqWy11bQWcvuqCI_e-41">
          <mxGeometry y="30" width="160" height="90" as="geometry" />
        </mxCell>
        <mxCell id="PNzyqWy11bQWcvuqCI_e-45" value="" style="endArrow=classic;html=1;dashed=1;exitX=1.013;exitY=0.333;exitDx=0;exitDy=0;exitPerimeter=0;entryX=0;entryY=0.5;entryDx=0;entryDy=0;" edge="1" parent="1" source="PNzyqWy11bQWcvuqCI_e-42" target="PNzyqWy11bQWcvuqCI_e-17">
          <mxGeometry width="50" height="50" relative="1" as="geometry">
            <mxPoint x="290" y="120" as="sourcePoint" />
            <mxPoint x="340" y="70" as="targetPoint" />
          </mxGeometry>
        </mxCell>
      </root>
    </mxGraphModel>
  </diagram>
</mxfile>
